# xmcd
#
# Track frame offsets: 
#        150
#        9745
#        24867
#        37064
#        49004
#        62331
#        78053
#        88816
#        101632
#        119295
#        132177
#        145584
#        162307
#        180954
#        194876
#        209820
#        219636
#        229574
#        242315
#        262172
#        275054
#        292295
#        304108
#        314777
#
# Disc length: 4340 seconds
#
# Revision: 0
# Processed by: cddbd v1.5.2PL0 Copyright (c) Steve Scherf et al.
# Submitted via: ExactAudioCopyFreeDBPlugin 1.0
#
DISCID=6510f218
DTITLE=Odetta - Sometimes I Feel Like Cryin'
DYEAR=1962
DGENRE=
TTITLE0=Gonna Take My Time
TTITLE1=Stranger Here
TTITLE2=I've Been Living with the Blues
TTITLE3=Be My Woman
TTITLE4=Poor Man
TTITLE5=Empty Pocket Blues
TTITLE6=I Just Can't Keep From Cryin'
TTITLE7=Special Delivery
TTITLE8=If I Had Wings
TTITLE9=Darlin' Baby
TTITLE10=Misery Blues
TTITLE11=House of the Rising Sun
TTITLE12=Hard, Oh Lord
TTITLE13=Beleive I'll Go
TTITLE14=Oh, Papa
TTITLE15=How Long Blues
TTITLE16=Hogan's Alley
TTITLE17=Leavin' This Mornin'
TTITLE18=Oh, My Babe
TTITLE19=Yonder Comes the Blues
TTITLE20=Make Me a Pallet on the Floor
TTITLE21=Weeping Willow Blues
TTITLE22=Go Down Sunshine
TTITLE23=Nobody Knows When You're Down and Out
EXTD=
EXTT0=
EXTT1=
EXTT2=
EXTT3=
EXTT4=
EXTT5=
EXTT6=
EXTT7=
EXTT8=
EXTT9=
EXTT10=
EXTT11=
EXTT12=
EXTT13=
EXTT14=
EXTT15=
EXTT16=
EXTT17=
EXTT18=
EXTT19=
EXTT20=
EXTT21=
EXTT22=
EXTT23=
PLAYORDER=
